<svg width="27" height="27" viewBox="0 0 27 27" fill="none" xmlns="http://www.w3.org/2000/svg">
<rect x="0.5" y="0.5" width="26" height="26" rx="6.5" stroke="black"/>
<path d="M19.5 10.3334C19.5 8.87468 18.9205 7.47574 17.8891 6.44429C16.8576 5.41284 15.4587 4.83337 14 4.83337C12.5413 4.83337 11.1424 5.41284 10.1109 6.44429C9.07946 7.47574 8.5 8.87468 8.5 10.3334C8.5 16.75 5.75 18.5834 5.75 18.5834H22.25C22.25 18.5834 19.5 16.75 19.5 10.3334Z" stroke="black" stroke-width="2" stroke-linecap="round" stroke-linejoin="round"/>
<path d="M15.5857 22.25C15.4246 22.5278 15.1933 22.7584 14.9149 22.9187C14.6366 23.079 14.3211 23.1634 13.9999 23.1634C13.6787 23.1634 13.3632 23.079 13.0849 22.9187C12.8065 22.7584 12.5752 22.5278 12.4141 22.25" stroke="black" stroke-width="2" stroke-linecap="round" stroke-linejoin="round"/>
<circle cx="19.0418" cy="6.20833" r="3.20833" fill="#E0E0E0"/>
<circle cx="19.0417" cy="6.20829" r="2.29167" fill="#FF0000"/>
</svg>
